{"title":"Fast.And.Furious.2009.BluRay.1080p.x264.DTS-WiKi","uid":11768733,"size":9342044307,"categoryP":"video","categoryS":"hd___movies","magnet":"?xt=urn:btih:9f5c69643e303d979cbd85fea47ba4678cd5bbb0&amp;dn=Fast.And.Furious.2009.BluRay.1080p.x264.DTS-WiKi&amp;tr=udp%3A%2F%2Ftracker.openbittorrent.com%3A80&amp;tr=udp%3A%2F%2Fopen.demonii.com%3A1337&amp;tr=udp%3A%2F%2Ftracker.coppersurfer.tk%3A6969&amp;tr=udp%3A%2F%2Fexodus.desync.com%3A6969","seeders":8,"leechers":4,"uploader":"vickey1992","files":3,"time":1426971809,"description":"Fast.And.Furious.2009.BluRay.1080p.x264.DTS-WiKi\n\n\n\nNAME.................: Fast.And.Furious.2009 \nGENRE................: Action | Crime | Drama | Thriller \nRATiNG...............: 6.7/10 &lt; 24,739Votes&gt; \niMDB http://www.imdb.com/title/tt1013752 \nRELEASE DATE.........: 2009 \nENCODE BY............: Saemonz \nRUNTiME..............: 106Mins \nFiLE SiZE............: 8.70GB \nViDEO CODEC..........: x264 9910Kbps \nAUDiO CODEC..........: DTS 1536Kbps \nFRAMERATE............: 23.976fps \nRESOLUTiON...........: 1920 x 800 \nLANGUAGE.............: English\nSUBTiTLES............: CHinese/English \nSOURCE...............: BluRay \n\nScreens:\n\nMediaInfo\n\n\nVideo\nID : 1\nFormat : AVC\nFormat/Info : Advanced Video Codec\nFormat profile : &lt;a class=&quot;__cf_email__&quot; href=&quot;/cdn-cgi/l/email-protection&quot; data-cfemail=&quot;84ccede3ecc4c8b0aab5&quot;&gt;[email&amp;#160;protected]&lt;/a&gt;&lt;script cf-hash='f9e31' type=&quot;text/javascript&quot;&gt;\n/* &lt;![CDATA[ */!function(){try{var t=&quot;currentScript&quot;in document?document.currentScript:function(){for(var t=document.getElementsByTagName(&quot;script&quot;),e=t.length;e--;)if(t[e].getAttribute(&quot;cf-hash&quot;))return t[e]}();if(t&amp;&amp;t.previousSibling){var e,r,n,i,c=t.previousSibling,a=c.getAttribute(&quot;data-cfemail&quot;);if(a){for(e=&quot;&quot;,r=parseInt(a.substr(0,2),16),n=2;a.length-n;n+=2)i=parseInt(a.substr(n,2),16)^r,e+=String.fromCharCode(i);e=document.createTextNode(e),c.parentNode.replaceChild(e,c)}}}catch(u){}}();/* ]]&gt; */&lt;/script&gt;\nFormat settings, CABAC : Yes\nFormat settings, ReFrames : 4 frames\nCodec ID : V_MPEG4/ISO/AVC\nDuration : 1h 46mn\nBit rate : 10.1 Mbps\nWidth : 1 920 pixels\nHeight : 800 pixels\nDisplay aspect ratio : 2.40:1\nFrame rate mode : Constant\nFrame rate : 23.976 fps\nColor space : YUV\nChroma subsampling : 4:2:0\nBit depth : 8 bits\nScan type : Progressive\nBits/(Pixel*Frame) : 0.275\nStream size : 7.40 GiB (85%)\nWriting library : x264 core 68 r1183M f21daff\nEncoding settings : cabac=1 / ref=4 / deblock=1:-3:-3 / analyse=0x3:0x133 / me=umh / subme=9 / psy_rd=0.8:0.3 / mixed_ref=1 / me_range=32 / chroma_me=1 / trellis=2 / 8x8dct=1 / cqm=0 / deadzone=21,11 / chroma_qp_offset=-4 / threads=6 / nr=0 / decimate=1 / mbaff=0 / bframes=4 / b_pyramid=1 / b_adapt=2 / b_bias=0 / direct=3 / wpredb=1 / keyint=250 / keyint_min=25 / scenecut=40 / rc=2pass / bitrate=10141 / ratetol=1.0 / qcomp=0.60 / qpmin=10 / qpmax=51 / qpstep=4 / cplxblur=20.0 / qblur=0.5 / ip_ratio=1.40 / pb_ratio=1.30 / aq=1:0.80\nLanguage : English\nDefault : Yes\nForced : No\n\nAudio\nID : 2\nFormat : DTS\nFormat/Info : Digital Theater Systems\nMode : 16\nFormat settings, Endianness : Big\nCodec ID : A_DTS\nDuration : 1h 46mn\nBit rate mode : Constant\nBit rate : 1 509 Kbps\nChannel(s) : 6 channels\nChannel positions : Front: L C R, Side: L R, LFE\nSampling rate : 48.0 KHz\nBit depth : 24 bits\nCompression mode : Lossy\nStream size : 1.13 GiB (13%)\nLanguage : English\nDefault : Yes\nForced : No\n\nText #1\nID : 3\nFormat : UTF-8\nCodec ID : S_TEXT/UTF8\nCodec ID/Info : UTF-8 Plain Text\nLanguage : Chinese\nDefault : Yes\nForced : No\n\nText #2\nID : 4\nFormat : UTF-8\nCodec ID : S_TEXT/UTF8\nCodec ID/Info : UTF-8 Plain Text\nLanguage : English\nDefault : No\nForced : No","torrent":{"xt":"urn:btih:9f5c69643e303d979cbd85fea47ba4678cd5bbb0","amp;dn":"Fast.And.Furious.2009.BluRay.1080p.x264.DTS-WiKi","amp;tr":["udp%3A%2F%2Ftracker.openbittorrent.com%3A80","udp%3A%2F%2Fopen.demonii.com%3A1337","udp%3A%2F%2Ftracker.coppersurfer.tk%3A6969","udp%3A%2F%2Fexodus.desync.com%3A6969"],"infoHash":"9f5c69643e303d979cbd85fea47ba4678cd5bbb0","infoHashBuffer":{"type":"Buffer","data":[159,92,105,100,62,48,61,151,156,189,133,254,164,123,164,103,140,213,187,176]},"announce":[],"urlList":[]}}